#!OML:ASF E:/inclinewalkrobotboard/Project1/Captureday1/Session1/subject1.ASF
:FULLY-SPECIFIED
:DEGREES
226
root 0 0 0 1.1079911477121032 -3.7401343963627185 1.8028474888942851
lowerback 11.995341183920274 0.8620147959681387 -0.07693840075562913
upperback -4.182516262948714 1.0910420280699336 -0.5396356010460475
thorax -11.297376435791689 0.5003925657218459 -0.7746381637674999
lowerneck -5.922160021729111 1.4701193981573017 4.520622910361206
upperneck 18.04085155878214 2.915453403608369 -8.266512789612555
head 6.615833681766699 1.0617150550564673 -3.194365297560855
rclavicle -1.235673940407596E-15 3.9886876337127837E-16
rhumerus 19.641187254987614 14.047231175574064 -47.80827915701049
rradius 72.07047927298979
rwrist 27.218745538972314
rhand -34.883625267750524 -57.52930789408122
rfingers 7.125020000000043
rthumb -8.02512634322813 -87.30888021442694
lclavicle 1.070676505556808E-15 -2.7162084037038797E-15
lhumerus 20.599434932269123 -12.31343846757065 45.617111429142724
lradius 69.53478584161869
lwrist -22.203871825199826
lhand -44.75690865967189 -70.15085694390044
lfingers 7.125020000000015
lthumb -17.56469580237985 -41.04424012495352
rfemur -25.19118224314601 -2.1624499139955167 16.896476992866525
rtibia 54.198100643296755
rfoot -28.226885206649758 -16.764591675368273
rtoes -17.85485936685751
lfemur -27.442916771968257 2.48226349238592 -18.26495011511315
ltibia 53.661649392475475
lfoot -31.886000821463327 -3.252960906993154
ltoes -19.56342318939658
227
root 0 0 0 1.1079443810003866 -3.7401923706675793 1.8028293303816274
lowerback 11.995329353928303 0.8620103393623346 -0.076918165460548
upperback -4.182496634185786 1.091040154182172 -0.5396209188703788
thorax -11.297347221734514 0.5003910980789515 -0.7746332860988908
lowerneck -5.9220418231763805 1.470106017769498 4.520650462198047
upperneck 18.040781587523565 2.915441575611256 -8.266578170624552
head 6.6157904480549705 1.061709703079786 -3.194391583583339
rclavicle -1.235210032696143E-15 3.988268234536353E-16
rhumerus 19.641323958822642 14.047361478335425 -47.80819643140589
rradius 72.07055205026435
rwrist 27.218728891352654
rhand -34.88340052572864 -57.52903274822417
rfingers 7.125020000000043
rthumb -8.024906749905414 -87.30859543870226
lclavicle 1.071385488446448E-15 -2.7161846018595466E-15
lhumerus 20.599488051779765 -12.313580281494337 45.61697437977706
lradius 69.53486931788204
lwrist -22.203887985725377
lhand -44.75681984597147 -70.15032351259103
lfingers 7.125020000000015
lthumb -17.564613302035532 -41.04370258826204
rfemur -25.19116692046874 -2.162446968670973 16.896485213897517
rtibia 54.19811478877186
rfoot -28.22690970104333 -16.764585716325858
rtoes -17.854861297203442
lfemur -27.442850845678155 2.482305506985666 -18.264936995460147
ltibia 53.66164218697911
lfoot -31.88600723611143 -3.252929342637314
ltoes -19.563675567957265
228
root 0 0 0 1.1079165758600118 -3.740226893986626 1.8028185164556687
lowerback 11.995322246915103 0.8620076795045818 -0.07690613427766249
upperback -4.182485019680385 1.091039025420944 -0.5396121843150072
thorax -11.297329871201054 0.5003902190041245 -0.7746303763071596
lowerneck -5.921971592872986 1.4700981056449411 4.520666800374789
upperneck 18.04074019836696 2.9154346100564634 -8.266616962223694
head 6.615764818667849 1.061706550680564 -3.1944071750157983
rclavicle -1.2349267222067295E-15 3.988013569196129E-16
rhumerus 19.64140602930742 14.047439755019209 -47.8081470642893
rradius 72.07059585806371
rwrist 27.218718778281726
rhand -34.883266146374396 -57.528868234032494
rfingers 7.125020000000043
rthumb -8.024775440360566 -87.30842512167703
lclavicle 1.0718182893420733E-15 -2.7161700158253936E-15
lhumerus 20.5995196054848 -12.313664992567023 45.61689256019493
lradius 69.53491921218713
lwrist -22.203897551521173
lhand -44.75676661730605 -70.15000450762358
lfingers 7.125020000000015
lthumb -17.564563879493456 -41.043381114116215
rfemur -25.1911576380569 -2.1624451642427442 16.8964901835216
rtibia 54.19812314813897
rfoot -28.226924477502795 -16.76458215929501
rtoes -17.854862506669516
lfemur -27.44281133784007 2.482330728623283 -18.264929125936877
ltibia 53.661637945677576
lfoot -31.886011011276544 -3.252910396961324
ltoes -19.563826653916042
229
root 0 0 0 1.1078999677373047 -3.740247537292182 1.8028120496107984
lowerback 11.995317971944484 0.8620060869178399 -0.07689894819587217
upperback -4.1824781039465515 1.0910383455830062 -0.5396069648603373
thorax -11.297319514087508 0.5003896914722376 -0.7746286341116191
lowerneck -5.921929665409811 1.470093397316165 4.520676544392144
upperneck 18.040715561496018 2.9154304767709815 -8.26664010246551
head 6.615749540817331 1.06170467970027 -3.194416474061297
rclavicle -1.2347555595669524E-15 3.987859738752476E-16
rhumerus 19.64145529074524 14.047486760552477 -47.80811751012546
rradius 72.07062214211957
rwrist 27.218712634664872
rhand -34.883185509890325 -57.52876943096817
rfingers 7.125020000000043
rthumb -8.02469664585656 -87.30832282915594
lclavicle 1.0720799825111674E-15 -2.7161615763703536E-15
lhumerus 20.59953846469932 -12.313715834294364 45.61684344690441
lradius 69.53494912559603
lwrist -22.203903286525236
lhand -44.75673460843864 -70.14981285071156
lfingers 7.125020000000015
lthumb -17.564534161223982 -41.043187974690056
rfemur -25.19115211704203 -2.162444083819053 16.896493141638455
rtibia 54.19812815548917
rfoot -28.226933314187587 -16.764580026302035
rtoes -17.85486322509009
lfemur -27.442787615848996 2.4823458780684655 -18.264924433180173
ltibia 53.661635393687675
lfoot -31.886013248601046 -3.25289904951026
ltoes -19.56391720291549
230
root 0 0 0 1.1078900415373134 -3.740259882748682 1.8028081821029596
lowerback 11.995315406339873 0.8620051336343546 -0.07689465351955457
upperback -4.182473978572858 1.0910379371403145 -0.5396038446292254
thorax -11.297313326572697 0.5003893752461496 -0.7746275913520507
lowerneck -5.921904613782409 1.4700905896429246 4.520682362217781
upperneck 18.04070086738418 2.915428016211987 -8.266653921209853
head 6.615740420657298 1.0617035657985308 -3.1944220265657663
rclavicle -1.2346529690989596E-15 3.9877710532161324E-16
rhumerus 19.641484822232677 14.047514938136992 -47.80809980714848
rradius 72.07063791415179
rwrist 27.218708955591314
rhand -34.88313721923116 -57.52871028289839
rfingers 7.125020000000043
rthumb -8.02464945706991 -87.30826158702584
lclavicle 1.0722369120225656E-15 -2.716156063958074E-15
lhumerus 20.599549761829646 -12.313746290949608 45.6168140506966
lradius 69.53496705196335
lwrist -22.203906708671497
lhand -44.75671543769649 -70.14969807704179
lfingers 7.125020000000015
lthumb -17.56451636486244 -41.04307231598796
rfemur -25.191148809623186 -2.1624434343261334 16.89649491118876
rtibia 54.19813114931316
rfoot -28.226938611190096 -16.76457874881616
rtoes -17.85486365479904
lfemur -27.442773396461277 2.4823549598704604 -18.264921625013095
ltibia 53.661633852046336
lfoot -31.886014581542653 -3.252892246449078
ltoes -19.563971458881902
